<svg id="line_icons" height="512" viewBox="1 1 74 74" width="512" xmlns="http://www.w3.org/2000/svg" data-name="line icons"><path d="m48.362 68.871h-40.526a5.718 5.718 0 0 1 -5.711-5.711v-50.6a5.718 5.718 0 0 1 5.711-5.713h5.333a1 1 0 0 1 1 1v5.176h3.7v-5.176a1 1 0 0 1 1-1h32.739a1 1 0 0 1 1 1v5.176h3.692v-5.176a1 1 0 0 1 1-1h5.344a5.712 5.712 0 0 1 5.7 5.711v35.477a1 1 0 0 1 -2 0v-35.477a3.71 3.71 0 0 0 -3.7-3.711h-4.344v5.176a1 1 0 0 1 -1 1h-5.692a1 1 0 0 1 -1-1v-5.176h-30.736v5.176a1 1 0 0 1 -1 1h-5.7a1 1 0 0 1 -1-1v-5.176h-4.336a3.716 3.716 0 0 0 -3.711 3.711v50.6a3.715 3.715 0 0 0 3.711 3.711h40.526a1 1 0 1 1 0 2z"/><path d="m67.347 24.168h-64.222a1 1 0 0 1 0-2h64.222a1 1 0 0 1 0 2z"/><path d="m22.2 40.123h-6.8a1 1 0 0 1 -1-1v-6.8a1 1 0 0 1 1-1h6.8a1 1 0 0 1 1 1v6.8a1 1 0 0 1 -1 1zm-5.8-2h4.8v-4.8h-4.8z"/><path d="m38.637 40.123h-6.8a1 1 0 0 1 -1-1v-6.8a1 1 0 0 1 1-1h6.8a1 1 0 0 1 1 1v6.8a1 1 0 0 1 -1 1zm-5.8-2h4.8v-4.8h-4.8z"/><path d="m55.075 40.123h-6.8a1 1 0 0 1 -1-1v-6.8a1 1 0 0 1 1-1h6.8a1 1 0 0 1 1 1v6.8a1 1 0 0 1 -1 1zm-5.8-2h4.8v-4.8h-4.8z"/><path d="m22.2 56.912h-6.8a1 1 0 0 1 -1-1v-6.8a1 1 0 0 1 1-1h6.8a1 1 0 0 1 1 1v6.8a1 1 0 0 1 -1 1zm-5.8-2h4.8v-4.8h-4.8z"/><path d="m38.637 56.912h-6.8a1 1 0 0 1 -1-1v-6.8a1 1 0 0 1 1-1h6.8a1 1 0 0 1 1 1v6.8a1 1 0 0 1 -1 1zm-5.8-2h4.8v-4.8h-4.8z"/><path d="m18.867 15.022h-5.695a1 1 0 0 1 -1-1v-11.022a1 1 0 0 1 1-1h5.7a1 1 0 0 1 1 1v11.022a1 1 0 0 1 -1.005 1zm-4.695-2h3.7v-9.022h-3.7z"/><path d="m57.3 15.022h-5.7a1 1 0 0 1 -1-1v-11.022a1 1 0 0 1 1-1h5.7a1 1 0 0 1 1 1v11.022a1 1 0 0 1 -1 1zm-4.694-2h3.694v-9.022h-3.7z"/><path d="m57.106 72a14.769 14.769 0 1 1 14.769-14.769 14.785 14.785 0 0 1 -14.769 14.769zm0-27.537a12.769 12.769 0 1 0 12.769 12.768 12.783 12.783 0 0 0 -12.769-12.768z"/><path d="m57.106 68.213a10.982 10.982 0 1 1 10.982-10.982 10.994 10.994 0 0 1 -10.982 10.982zm0-19.963a8.982 8.982 0 1 0 8.982 8.981 8.991 8.991 0 0 0 -8.982-8.981z"/><path d="m57.1 52.13a1 1 0 0 1 -1-1v-.779a1 1 0 0 1 2 0v.779a1 1 0 0 1 -1 1z"/><path d="m57.1 65.071a1 1 0 0 1 -1-1v-.779a1 1 0 0 1 2 0v.779a1 1 0 0 1 -1 1z"/><path d="m63.956 58.211h-.779a1 1 0 0 1 0-2h.779a1 1 0 0 1 0 2z"/><path d="m51.016 58.211h-.78a1 1 0 0 1 0-2h.78a1 1 0 1 1 0 2z"/><path d="m60.415 58.211h-3.315a1 1 0 0 1 -.691-.277l-4.611-4.406a1 1 0 1 1 1.382-1.446l4.32 4.129h2.918a1 1 0 1 1 0 2z"/></svg>