<svg xmlns="http://www.w3.org/2000/svg" width="10" height="12" viewBox="0 0 10 12">
    <g fill="#BF1212">
        <path d="M6.707 4.355c-.159 0-.288.126-.288.28v5.287c0 .154.13.28.288.28.159 0 .287-.126.287-.28V4.635c0-.154-.128-.28-.287-.28zM3.316 4.355c-.159 0-.287.126-.287.28v5.287c0 .154.128.28.287.28.159 0 .287-.126.287-.28V4.635c0-.154-.128-.28-.287-.28z"/>
        <path d="M.845 3.584v6.892c0 .407.153.79.421 1.064.267.275.638.431 1.027.432H7.73c.389 0 .76-.157 1.027-.432.268-.275.421-.657.421-1.064V3.584c.533-.138.878-.639.807-1.171-.071-.532-.537-.93-1.089-.93h-1.47v-.35c0-.294-.119-.577-.332-.784C6.88.14 6.589.026 6.287.028H3.736c-.302-.002-.593.113-.807.32-.214.208-.333.49-.331.785v.35H1.126c-.551 0-1.017.398-1.088.93-.071.532.274 1.033.807 1.17zm6.885 7.829H2.293c-.491 0-.874-.411-.874-.937V3.608h7.184v6.868c0 .526-.382.937-.873.937zM3.172 1.133C3.17.987 3.23.847 3.335.744c.107-.103.25-.16.4-.157h2.552c.15-.002.294.054.4.157.107.103.165.243.164.389v.35H3.172v-.35zm-2.046.909h7.77c.286 0 .518.225.518.503 0 .279-.232.504-.518.504h-7.77c-.285 0-.517-.225-.517-.504 0-.278.232-.503.517-.503z"/>
        <path d="M5.011 4.355c-.158 0-.287.126-.287.28v5.287c0 .154.129.28.287.28.16 0 .288-.126.288-.28V4.635c0-.154-.129-.28-.288-.28z"/>
    </g>
</svg>
