<?xml version="1.0" standalone="no"?>
<svg viewBox="0 0 200 200" xmlns="http://www.w3.org/2000/svg">
  <path fill="#24B6DE" d="M26.5,-48.2C36.1,-40.4,46.7,-36.8,55,-29.4C63.3,-22.1,69.1,-11.1,66.4,-1.6C63.7,7.9,52.3,15.8,43.9,22.9C35.5,29.9,30,36.2,23.2,47.7C16.4,59.2,8.2,75.8,-1.4,78.3C-11,80.8,-22.1,69,-34.8,61C-47.5,52.9,-61.8,48.4,-64.8,38.9C-67.7,29.3,-59.2,14.7,-60.5,-0.8C-61.8,-16.2,-73,-32.4,-70.8,-43.3C-68.7,-54.2,-53.2,-59.8,-39.2,-65.1C-25.2,-70.4,-12.6,-75.3,-2.1,-71.7C8.5,-68.1,16.9,-56,26.5,-48.2Z" transform="translate(100 100)" />
</svg>
