<?xml version="1.0" encoding="UTF-8"?>
<svg xmlns="http://www.w3.org/2000/svg" id="Icons" viewBox="0 0 74 74" width="512" height="512"><path d="M50.61,20.14a1,1,0,0,1-.593-.2,21.949,21.949,0,0,0-9.677-4.016,1,1,0,0,1-.844-1.1,1.46,1.46,0,0,0,0-.162V3.85a1,1,0,0,1,1.1-1A34.837,34.837,0,0,1,59.071,10.5a1,1,0,0,1,.076,1.483l-7.65,7.65a.6.6,0,0,0-.07.081,1,1,0,0,1-.657.409A.959.959,0,0,1,50.61,20.14ZM41.5,14.1a23.96,23.96,0,0,1,8.982,3.725l6.454-6.453A32.832,32.832,0,0,0,41.5,4.976Z"/><path d="M59.729,35.18a1,1,0,0,1-.987-.849,22.015,22.015,0,0,0-4.009-9.679,1,1,0,0,1,.158-1.352c.05-.044.1-.087.145-.13l7.647-7.647a1,1,0,0,1,1.482.076,34.77,34.77,0,0,1,7.65,18.469,1,1,0,0,1-1,1.1H60a1.016,1.016,0,0,0-.156,0A1.093,1.093,0,0,1,59.729,35.18Zm.843-2.01h9.122A32.771,32.771,0,0,0,63.3,17.733l-6.45,6.451A24.057,24.057,0,0,1,60.572,33.17Z"/><path d="M33.5,72.49c-.034,0-.067,0-.1,0a34.773,34.773,0,0,1-18.469-7.66,1,1,0,0,1-.076-1.483L22.5,55.7c.047-.046.086-.093.126-.14A1.022,1.022,0,0,1,24,55.4a21.848,21.848,0,0,0,9.665,4.015,1,1,0,0,1,.844,1.1,1.485,1.485,0,0,0,0,.163V71.49a1,1,0,0,1-1,1ZM17.063,63.961a32.774,32.774,0,0,0,15.437,6.4V61.241a23.864,23.864,0,0,1-8.979-3.728ZM23.4,56.2l.756.655Z"/><path d="M5.58,25.681A1,1,0,0,1,4.653,24.3a29.627,29.627,0,0,1,1.356-2.9,1,1,0,0,1,1.762.948,27.015,27.015,0,0,0-1.264,2.7A1,1,0,0,1,5.58,25.681Z"/><path d="M10.6,60.11l-.052,0a1,1,0,0,1-.725-.368,35.014,35.014,0,0,1-7.4-27.486,1,1,0,1,1,1.974.312A33.039,33.039,0,0,0,10.69,57.605l6.462-6.453a23.737,23.737,0,0,1-3.266-7.035A23.981,23.981,0,0,1,13,37.67a23.355,23.355,0,0,1,.407-4.367A21.9,21.9,0,0,1,14.3,29.9a23.462,23.462,0,0,1,3.6-6.726,21.831,21.831,0,0,1,2.036-2.348,23.873,23.873,0,0,1,5.922-4.4A23.573,23.573,0,0,1,32.5,14.1V4.977a32.978,32.978,0,0,0-13.659,5.137,1,1,0,0,1-1.1-1.669A34.977,34.977,0,0,1,33.4,2.855a1,1,0,0,1,1.1,1V14.67a1.46,1.46,0,0,0,0,.162,1,1,0,0,1-.844,1.1,21.6,21.6,0,0,0-6.872,2.265,21.888,21.888,0,0,0-5.435,4.036,20.14,20.14,0,0,0-1.862,2.148,21.518,21.518,0,0,0-3.3,6.174,19.917,19.917,0,0,0-.813,3.114,21.366,21.366,0,0,0-.374,4,21.99,21.99,0,0,0,4.267,13.009,1,1,0,0,1-.158,1.351c-.045.039-.084.079-.128.123l-7.674,7.664A1,1,0,0,1,10.6,60.11Z"/><path d="M10.849,16.94A1,1,0,0,1,10.08,15.3c.666-.8,1.359-1.565,2.063-2.268a1,1,0,1,1,1.414,1.414c-.66.66-1.311,1.377-1.938,2.132A1,1,0,0,1,10.849,16.94Z"/><path d="M40.5,72.49a1,1,0,0,1-1-1V60.67a1.485,1.485,0,0,0,0-.163,1,1,0,0,1,.843-1.1,22.156,22.156,0,0,0,18.4-18.4.994.994,0,0,1,1.1-.843c.054.005.107,0,.161,0H70.82a1,1,0,0,1,1,1.1A35.069,35.069,0,0,1,40.6,72.485.882.882,0,0,1,40.5,72.49Zm1-11.249v9.123A33.08,33.08,0,0,0,69.694,42.17H60.571A24.2,24.2,0,0,1,41.5,61.241Z"/></svg>
