<svg xmlns="http://www.w3.org/2000/svg" width="13" height="13" viewBox="0 0 13 13">
    <g fill="#CACACA">
        <path d="M11.984 8.157c-.178 0-.323.145-.323.325v2.885c0 .539-.435.975-.97.975H1.617c-.536 0-.97-.436-.97-.975V2.898c0-.538.434-.974.97-.975h2.871c.179 0 .324-.145.324-.325 0-.18-.145-.325-.324-.325H1.617C.724 1.274 0 2.001 0 2.898v8.47c.001.896.724 1.623 1.617 1.624h9.074c.892 0 1.616-.728 1.617-1.625V8.482c0-.18-.145-.325-.324-.325z"/>
        <path d="M12.18.437c-.569-.571-1.49-.571-2.058 0l-5.77 5.798c-.04.04-.068.089-.083.143L3.51 9.131c-.03.113.001.234.083.316.083.083.203.115.315.084l2.74-.763c.053-.015.102-.043.142-.083l5.769-5.798c.567-.572.567-1.497 0-2.069l-.38-.381zm-7.123 6.01L9.779 1.7 11.3 3.23 6.58 7.977l-1.522-1.53zm-.304.613l1.216 1.223-1.683.468.467-1.691zm7.349-4.633l-.343.345-1.523-1.53.343-.346c.316-.317.827-.317 1.143 0l.38.382c.315.317.315.831 0 1.149z"/>
    </g>
</svg>
