<svg xmlns="http://www.w3.org/2000/svg" width="28" height="32" viewBox="0 0">
    <defs>
        <linearGradient id="prefix__a" x1="50%" x2="50%" y1="-10.272%" y2="156.566%">
            <stop offset="0%" stop-color="#00D0D1"/>
            <stop offset="100%" stop-color="#40A2E9"/>
        </linearGradient>
        <linearGradient id="prefix__b" x1="42.019%" x2="50%" y1="-70.755%" y2="99.36%">
            <stop offset="0%" stop-color="#40A2E9"/>
            <stop offset="100%" stop-color="#00D0D1"/>
        </linearGradient>
        <linearGradient id="prefix__d" x1="51.253%" x2="51.253%" y1="-3.658%" y2="83.758%">
            <stop offset="0%" stop-color="#40A2E9"/>
            <stop offset="100%" stop-color="#00D0D1"/>
        </linearGradient>
        <linearGradient id="prefix__c" x1="50%" x2="50%" y1="-11.699%" y2="87.942%">
            <stop offset="0%" stop-color="#40A2E9"/>
            <stop offset="100%" stop-color="#00D0D1"/>
        </linearGradient>
    </defs>
    <g fill="none" fill-rule="evenodd">
        <path fill="url(#prefix__a)" d="M10.005 28.796l2.942 2.128c.09.065.21.07.305.013 6.625-4.001 10.815-8.21 12.57-12.628 1.37-3.445.042-7.557-2.586-9.44-3.585-2.567-6.101-1.42-7.846-.958-.886.235-1.45.702-2.313.702-.576 0-1.347-.234-2.313-.702-3.133-1.047-5.74-.65-7.818 1.191-3.12 2.762-3.34 6.002-2.576 8.72.626 2.228 3.075 5.342 7.345 9.343 2.24-1.442 3.868-2.56 4.887-3.353.942-.732 1.806-1.532 2.594-2.4.103-.113.094-.288-.019-.39l-.01-.01-1.32-1.079c-.608-.496-1.467-.542-2.123-.112L8.476 21.95c-3.818-3.75-4.815-6.7-2.993-8.85 1.855-2.19 4.158-1.4 6.854 0 1.068.553 2.811-.313 3.71-.853 2.762-1.662 8.596 1.244 3.964 7.318-2.98 3.908-6.304 6.829-9.973 8.762-.135.071-.186.238-.115.374.02.037.048.07.082.095z"/>
        <ellipse cx="13.212" cy="3.626" fill="url(#prefix__b)" rx="3.65" ry="3.626"/>
    </g>
</svg>
