<svg xmlns="http://www.w3.org/2000/svg" width="22" height="20" viewBox="0 0 22 20">
    <path fill="#D8D8D8" fill-rule="evenodd" d="M2.415 18.14c1.055-1.086 3.578-2.295 5.687-3.01l2.278 1.885c.358.296.883.296 1.24 0l2.279-1.885c2.108.715 4.631 1.924 5.686 3.01H2.415zm11.566-4.944c-.315-.099-.659-.031-.91.177L11 15.085l-2.07-1.712c-.252-.208-.596-.276-.91-.177C6.68 13.61 0 15.846 0 19.07c0 .513.428.93.957.93h20.086c.529 0 .957-.417.957-.93 0-3.223-6.68-5.46-8.019-5.874zM11 1.86c2.496 0 4.526 1.987 4.526 4.43 0 2.442-2.03 4.43-4.526 4.43-2.495 0-4.526-1.988-4.526-4.43 0-2.443 2.03-4.43 4.526-4.43zm0 10.72c3.55 0 6.439-2.822 6.439-6.29C17.439 2.82 14.55 0 11 0 7.45 0 4.561 2.821 4.561 6.29c0 3.468 2.889 6.29 6.439 6.29z"/>
</svg>
