<?xml version="1.0" standalone="no"?>
<svg  xmlns="http://www.w3.org/2000/svg" viewBox="0 0 1440 320">
<path fill="#24b6de" fill-opacity="1" d="M0,224L14.1,224C28.2,224,56,224,85,234.7C112.9,245,141,267,169,277.3C197.6,288,226,288,254,266.7C282.4,245,311,203,339,208C367.1,213,395,267,424,250.7C451.8,235,480,149,508,144C536.5,139,565,213,593,256C621.2,299,649,309,678,309.3C705.9,309,734,299,762,298.7C790.6,299,819,309,847,298.7C875.3,288,904,256,932,250.7C960,245,988,267,1016,245.3C1044.7,224,1073,160,1101,128C1129.4,96,1158,96,1186,85.3C1214.1,75,1242,53,1271,85.3C1298.8,117,1327,203,1355,202.7C1383.5,203,1412,117,1426,74.7L1440,32L1440,320L1425.9,320C1411.8,320,1384,320,1355,320C1327.1,320,1299,320,1271,320C1242.4,320,1214,320,1186,320C1157.6,320,1129,320,1101,320C1072.9,320,1045,320,1016,320C988.2,320,960,320,932,320C903.5,320,875,320,847,320C818.8,320,791,320,762,320C734.1,320,706,320,678,320C649.4,320,621,320,593,320C564.7,320,536,320,508,320C480,320,452,320,424,320C395.3,320,367,320,339,320C310.6,320,282,320,254,320C225.9,320,198,320,169,320C141.2,320,113,320,85,320C56.5,320,28,320,14,320L0,320Z"></path></svg>